<svg xmlns="http://www.w3.org/2000/svg" xmlns:xlink="http://www.w3.org/1999/xlink" version="1.1" x="0px" y="0px" viewBox="0 0 64 80" style="enable-background:new 0 0 64 64;" xml:space="preserve" stroke='currentColor' ><g><path d="M59.5,41.1v17.4c0,0.2-0.1,0.3-0.3,0.3h-4.5c-0.1,0-0.2-0.1-0.3-0.2l-1.7-3.3H11.3l-1.7,3.3c0,0.1-0.2,0.2-0.3,0.2H4.8   c-0.2,0-0.3-0.1-0.3-0.3V41.1c0-0.5,0.2-0.9,0.5-1.3c0.3-0.4,0.7-0.6,1.1-0.8c6.3-2.5,15.6-4.1,25.9-4.1c10.3,0,19.6,1.6,25.9,4.1   c0.5,0.2,0.8,0.5,1.1,0.8C59.3,40.2,59.5,40.7,59.5,41.1z"/><path d="M55.9,11.4v12.7h-3v-8.9H34.5v8.9h-5v-8.9H11.1v8.9h-3V11.4c0-0.9,0.5-1.7,1.4-2.1C14.9,6.8,23,5.2,32,5.2   c9,0,17.1,1.6,22.5,4.1C55.3,9.6,55.9,10.5,55.9,11.4z"/><path d="M58.6,37.6c-0.1,0-0.1,0-0.2-0.1c-6.7-2.7-16.3-4.2-26.5-4.2c-10.1,0-19.8,1.5-26.5,4.2c-0.1,0-0.1,0-0.2,0.1l2.4-11.9   h48.5L58.6,37.6z"/><g><rect x="12.7" y="16.8" width="15.2" height="7.3"/><rect x="36.1" y="16.8" width="15.2" height="7.3"/></g></g></svg>
