<svg xmlns="http://www.w3.org/2000/svg" xmlns:xlink="http://www.w3.org/1999/xlink" version="1.1" x="0px" y="0px" viewBox="0 0 50 62.5" enable-background="new 0 0 50 50" xml:space="preserve"><g><path d="M24.5,31.6c-0.1,0.1-0.3,0.3-0.4,0.4L18,25.9c0,0,0.4-0.4,0.4-0.4c1.1-1.1,2.9-1.1,4.1,0l2,2   C25.6,28.7,25.6,30.5,24.5,31.6z"/><path d="M48.7,3.4L25.9,26.2c0,0-2.1-2.1-2.1-2.1L46.6,1.3c0.5-0.5,1.2-0.5,1.7,0l0.4,0.4C49.2,2.2,49.2,2.9,48.7,3.4z"/><path d="M22.8,33.6c-0.5,0.7-1.8,3-8,14.4c-0.7,1.2-2.3,1.5-3.3,0.5l-1.7-1.7l4.4-4.1l-5.9,2.6l-3.9-3.9L6,37.9l-2.8,2.3l-1.7-1.7   c-1-1-0.7-2.6,0.5-3.3c14.9-8.2,13.4-7.3,14.4-8L22.8,33.6z"/></g></svg>
